# MagicaVoxel @ Ephtracy

# material
mtllib Armour walk 2.mtl
usemtl palette

# normals
vn -1 0 0
vn 1 0 0
vn 0 0 1
vn 0 0 -1
vn 0 -1 0
vn 0 1 0

# texcoords
vt 0.0410156 0.5
vt 0.541016 0.5
vt 0.958984 0.5

# verts
v -4.5 8 4.5
v -4.5 8 -4.5
v -4.5 14 4.5
v -4.5 14 -4.5
v -4.5 17 0.5
v -4.5 17 -0.5
v -4.5 21 0.5
v -4.5 21 -0.5
v -3.5 1 -2.5
v -3.5 1 -3.5
v -3.5 3 3.5
v -3.5 3 2.5
v -3.5 6 2.5
v -3.5 6 -2.5
v -3.5 8 3.5
v -3.5 8 -3.5
v -2.5 14 2.5
v -2.5 14 -2.5
v -2.5 17 0.5
v -2.5 17 -0.5
v -2.5 18 0.5
v -2.5 18 -0.5
v -2.5 19 2.5
v -2.5 19 -2.5
v -2.5 21 0.5
v -2.5 21 -0.5
v -2.5 23 0.5
v -2.5 23 -0.5
v 0.5 14 2.5
v 0.5 14 1.5
v 0.5 17 2.5
v 0.5 17 1.5
v 1.5 17 2.5
v 1.5 17 1.5
v 1.5 18 2.5
v 1.5 18 1.5
v 1.5 20 0.5
v 1.5 20 -0.5
v 1.5 23 0.5
v 1.5 23 -0.5
v 2.5 1 3.5
v 2.5 1 2.5
v 2.5 3 -2.5
v 2.5 3 -3.5
v 2.5 6 3.5
v 2.5 6 2.5
v 2.5 6 -2.5
v 2.5 6 -3.5
v 3.5 18 0.5
v 3.5 18 -0.5
v 3.5 20 0.5
v 3.5 20 -0.5
v -3.5 18 0.5
v -3.5 18 -0.5
v -3.5 20 0.5
v -3.5 20 -0.5
v -2.5 1 -2.5
v -2.5 1 -3.5
v -2.5 3 3.5
v -2.5 3 2.5
v -2.5 6 3.5
v -2.5 6 2.5
v -2.5 6 -2.5
v -2.5 6 -3.5
v -1.5 17 2.5
v -1.5 17 1.5
v -1.5 18 2.5
v -1.5 18 1.5
v -1.5 20 0.5
v -1.5 20 -0.5
v -1.5 23 0.5
v -1.5 23 -0.5
v -0.5 14 2.5
v -0.5 14 1.5
v -0.5 17 2.5
v -0.5 17 1.5
v 2.5 14 2.5
v 2.5 14 -2.5
v 2.5 17 0.5
v 2.5 17 -0.5
v 2.5 18 0.5
v 2.5 18 -0.5
v 2.5 19 2.5
v 2.5 19 -2.5
v 2.5 21 0.5
v 2.5 21 -0.5
v 2.5 23 0.5
v 2.5 23 -0.5
v 3.5 1 3.5
v 3.5 1 2.5
v 3.5 3 -2.5
v 3.5 3 -3.5
v 3.5 6 2.5
v 3.5 6 -2.5
v 3.5 8 3.5
v 3.5 8 -3.5
v 4.5 8 4.5
v 4.5 8 -4.5
v 4.5 14 4.5
v 4.5 14 -4.5
v 4.5 17 0.5
v 4.5 17 -0.5
v 4.5 21 0.5
v 4.5 21 -0.5
v -4.5 8 4.5
v -4.5 14 4.5
v 4.5 8 4.5
v 4.5 14 4.5
v -3.5 3 3.5
v -3.5 8 3.5
v -2.5 3 3.5
v -2.5 6 3.5
v 2.5 1 3.5
v 2.5 6 3.5
v 3.5 1 3.5
v 3.5 8 3.5
v -2.5 14 2.5
v -2.5 19 2.5
v -1.5 17 2.5
v -1.5 18 2.5
v -0.5 14 2.5
v -0.5 17 2.5
v 0.5 14 2.5
v 0.5 17 2.5
v 1.5 17 2.5
v 1.5 18 2.5
v 2.5 14 2.5
v 2.5 19 2.5
v -1.5 17 1.5
v -1.5 18 1.5
v -0.5 14 1.5
v -0.5 17 1.5
v 0.5 14 1.5
v 0.5 17 1.5
v 1.5 17 1.5
v 1.5 18 1.5
v -4.5 17 0.5
v -4.5 21 0.5
v -3.5 18 0.5
v -3.5 20 0.5
v -2.5 17 0.5
v -2.5 18 0.5
v -2.5 21 0.5
v -2.5 23 0.5
v -1.5 20 0.5
v -1.5 23 0.5
v 1.5 20 0.5
v 1.5 23 0.5
v 2.5 17 0.5
v 2.5 18 0.5
v 2.5 21 0.5
v 2.5 23 0.5
v 3.5 18 0.5
v 3.5 20 0.5
v 4.5 17 0.5
v 4.5 21 0.5
v -3.5 1 -2.5
v -3.5 6 -2.5
v -2.5 1 -2.5
v -2.5 6 -2.5
v 2.5 3 -2.5
v 2.5 6 -2.5
v 3.5 3 -2.5
v 3.5 6 -2.5
v -3.5 3 2.5
v -3.5 6 2.5
v -2.5 3 2.5
v -2.5 6 2.5
v 2.5 1 2.5
v 2.5 6 2.5
v 3.5 1 2.5
v 3.5 6 2.5
v -4.5 17 -0.5
v -4.5 21 -0.5
v -3.5 18 -0.5
v -3.5 20 -0.5
v -2.5 17 -0.5
v -2.5 18 -0.5
v -2.5 21 -0.5
v -2.5 23 -0.5
v -1.5 20 -0.5
v -1.5 23 -0.5
v 1.5 20 -0.5
v 1.5 23 -0.5
v 2.5 17 -0.5
v 2.5 18 -0.5
v 2.5 21 -0.5
v 2.5 23 -0.5
v 3.5 18 -0.5
v 3.5 20 -0.5
v 4.5 17 -0.5
v 4.5 21 -0.5
v -2.5 14 -2.5
v -2.5 19 -2.5
v 2.5 14 -2.5
v 2.5 19 -2.5
v -3.5 1 -3.5
v -3.5 8 -3.5
v -2.5 1 -3.5
v -2.5 6 -3.5
v 2.5 3 -3.5
v 2.5 6 -3.5
v 3.5 3 -3.5
v 3.5 8 -3.5
v -4.5 8 -4.5
v -4.5 14 -4.5
v 4.5 8 -4.5
v 4.5 14 -4.5
v 2.5 1 3.5
v 3.5 1 3.5
v 2.5 1 2.5
v 3.5 1 2.5
v -3.5 1 -2.5
v -2.5 1 -2.5
v -3.5 1 -3.5
v -2.5 1 -3.5
v -3.5 3 3.5
v -2.5 3 3.5
v -3.5 3 2.5
v -2.5 3 2.5
v 2.5 3 -2.5
v 3.5 3 -2.5
v 2.5 3 -3.5
v 3.5 3 -3.5
v -2.5 6 3.5
v 2.5 6 3.5
v -3.5 6 2.5
v -2.5 6 2.5
v 2.5 6 2.5
v 3.5 6 2.5
v -3.5 6 -2.5
v -2.5 6 -2.5
v 2.5 6 -2.5
v 3.5 6 -2.5
v -2.5 6 -3.5
v 2.5 6 -3.5
v -4.5 8 4.5
v 4.5 8 4.5
v -3.5 8 3.5
v 3.5 8 3.5
v -3.5 8 -3.5
v 3.5 8 -3.5
v -4.5 8 -4.5
v 4.5 8 -4.5
v -4.5 17 0.5
v -2.5 17 0.5
v 2.5 17 0.5
v 4.5 17 0.5
v -4.5 17 -0.5
v -2.5 17 -0.5
v 2.5 17 -0.5
v 4.5 17 -0.5
v -1.5 18 2.5
v 1.5 18 2.5
v -1.5 18 1.5
v 1.5 18 1.5
v -3.5 20 0.5
v -1.5 20 0.5
v 1.5 20 0.5
v 3.5 20 0.5
v -3.5 20 -0.5
v -1.5 20 -0.5
v 1.5 20 -0.5
v 3.5 20 -0.5
v -4.5 14 4.5
v 4.5 14 4.5
v -2.5 14 2.5
v -0.5 14 2.5
v 0.5 14 2.5
v 2.5 14 2.5
v -0.5 14 1.5
v 0.5 14 1.5
v -2.5 14 -2.5
v 2.5 14 -2.5
v -4.5 14 -4.5
v 4.5 14 -4.5
v -1.5 17 2.5
v -0.5 17 2.5
v 0.5 17 2.5
v 1.5 17 2.5
v -1.5 17 1.5
v -0.5 17 1.5
v 0.5 17 1.5
v 1.5 17 1.5
v -3.5 18 0.5
v -2.5 18 0.5
v 2.5 18 0.5
v 3.5 18 0.5
v -3.5 18 -0.5
v -2.5 18 -0.5
v 2.5 18 -0.5
v 3.5 18 -0.5
v -2.5 19 2.5
v 2.5 19 2.5
v -2.5 19 -2.5
v 2.5 19 -2.5
v -4.5 21 0.5
v -2.5 21 0.5
v 2.5 21 0.5
v 4.5 21 0.5
v -4.5 21 -0.5
v -2.5 21 -0.5
v 2.5 21 -0.5
v 4.5 21 -0.5
v -2.5 23 0.5
v -1.5 23 0.5
v 1.5 23 0.5
v 2.5 23 0.5
v -2.5 23 -0.5
v -1.5 23 -0.5
v 1.5 23 -0.5
v 2.5 23 -0.5

# faces
f 3/1/1 2/1/1 1/1/1
f 4/1/1 2/1/1 3/1/1
f 7/3/1 6/3/1 5/3/1
f 8/3/1 6/3/1 7/3/1
f 13/2/1 12/2/1 11/2/1
f 14/2/1 10/2/1 9/2/1
f 15/2/1 13/2/1 11/2/1
f 15/2/1 14/2/1 13/2/1
f 16/2/1 10/2/1 14/2/1
f 16/2/1 14/2/1 15/2/1
f 19/1/1 18/1/1 17/1/1
f 20/1/1 18/1/1 19/1/1
f 21/1/1 19/1/1 17/1/1
f 22/1/1 18/1/1 20/1/1
f 23/1/1 21/1/1 17/1/1
f 23/1/1 22/1/1 21/1/1
f 24/1/1 18/1/1 22/1/1
f 24/1/1 22/1/1 23/1/1
f 27/3/1 26/3/1 25/3/1
f 28/3/1 26/3/1 27/3/1
f 31/1/1 30/1/1 29/1/1
f 32/1/1 30/1/1 31/1/1
f 35/1/1 34/1/1 33/1/1
f 36/1/1 34/1/1 35/1/1
f 39/3/1 38/3/1 37/3/1
f 40/3/1 38/3/1 39/3/1
f 45/2/1 42/2/1 41/2/1
f 46/2/1 42/2/1 45/2/1
f 47/2/1 44/2/1 43/2/1
f 48/2/1 44/2/1 47/2/1
f 51/3/1 50/3/1 49/3/1
f 52/3/1 50/3/1 51/3/1
f 53/3/2 54/3/2 55/3/2
f 55/3/2 54/3/2 56/3/2
f 59/2/2 60/2/2 61/2/2
f 61/2/2 60/2/2 62/2/2
f 57/2/2 58/2/2 63/2/2
f 63/2/2 58/2/2 64/2/2
f 65/1/2 66/1/2 67/1/2
f 67/1/2 66/1/2 68/1/2
f 69/3/2 70/3/2 71/3/2
f 71/3/2 70/3/2 72/3/2
f 73/1/2 74/1/2 75/1/2
f 75/1/2 74/1/2 76/1/2
f 77/1/2 78/1/2 79/1/2
f 79/1/2 78/1/2 80/1/2
f 77/1/2 79/1/2 81/1/2
f 80/1/2 78/1/2 82/1/2
f 77/1/2 81/1/2 83/1/2
f 81/1/2 82/1/2 83/1/2
f 82/1/2 78/1/2 84/1/2
f 83/1/2 82/1/2 84/1/2
f 85/3/2 86/3/2 87/3/2
f 87/3/2 86/3/2 88/3/2
f 89/2/2 90/2/2 93/2/2
f 91/2/2 92/2/2 94/2/2
f 89/2/2 93/2/2 95/2/2
f 93/2/2 94/2/2 95/2/2
f 94/2/2 92/2/2 96/2/2
f 95/2/2 94/2/2 96/2/2
f 97/1/2 98/1/2 99/1/2
f 99/1/2 98/1/2 100/1/2
f 101/3/2 102/3/2 103/3/2
f 103/3/2 102/3/2 104/3/2
f 107/1/3 106/1/3 105/1/3
f 108/1/3 106/1/3 107/1/3
f 111/2/3 110/2/3 109/2/3
f 112/2/3 110/2/3 111/2/3
f 114/2/3 110/2/3 112/2/3
f 115/2/3 114/2/3 113/2/3
f 116/2/3 110/2/3 114/2/3
f 116/2/3 114/2/3 115/2/3
f 119/1/3 118/1/3 117/1/3
f 120/1/3 118/1/3 119/1/3
f 121/1/3 119/1/3 117/1/3
f 122/1/3 119/1/3 121/1/3
f 125/1/3 124/1/3 123/1/3
f 126/1/3 118/1/3 120/1/3
f 127/1/3 125/1/3 123/1/3
f 127/1/3 126/1/3 125/1/3
f 128/1/3 118/1/3 126/1/3
f 128/1/3 126/1/3 127/1/3
f 132/2/3 130/2/3 129/2/3
f 133/2/3 132/2/3 131/2/3
f 134/2/3 130/2/3 132/2/3
f 134/2/3 132/2/3 133/2/3
f 135/2/3 130/2/3 134/2/3
f 136/2/3 130/2/3 135/2/3
f 139/3/3 138/3/3 137/3/3
f 140/3/3 138/3/3 139/3/3
f 141/3/3 139/3/3 137/3/3
f 142/3/3 139/3/3 141/3/3
f 143/3/3 138/3/3 140/3/3
f 145/3/3 144/3/3 143/3/3
f 145/3/3 143/3/3 140/3/3
f 146/3/3 144/3/3 145/3/3
f 151/3/3 148/3/3 147/3/3
f 152/3/3 148/3/3 151/3/3
f 153/3/3 150/3/3 149/3/3
f 154/3/3 151/3/3 147/3/3
f 155/3/3 153/3/3 149/3/3
f 155/3/3 154/3/3 153/3/3
f 156/3/3 151/3/3 154/3/3
f 156/3/3 154/3/3 155/3/3
f 159/2/3 158/2/3 157/2/3
f 160/2/3 158/2/3 159/2/3
f 163/2/3 162/2/3 161/2/3
f 164/2/3 162/2/3 163/2/3
f 165/2/4 166/2/4 167/2/4
f 167/2/4 166/2/4 168/2/4
f 169/2/4 170/2/4 171/2/4
f 171/2/4 170/2/4 172/2/4
f 173/3/4 174/3/4 175/3/4
f 175/3/4 174/3/4 176/3/4
f 173/3/4 175/3/4 177/3/4
f 177/3/4 175/3/4 178/3/4
f 176/3/4 174/3/4 179/3/4
f 179/3/4 180/3/4 181/3/4
f 176/3/4 179/3/4 181/3/4
f 181/3/4 180/3/4 182/3/4
f 183/3/4 184/3/4 187/3/4
f 187/3/4 184/3/4 188/3/4
f 185/3/4 186/3/4 189/3/4
f 183/3/4 187/3/4 190/3/4
f 185/3/4 189/3/4 191/3/4
f 189/3/4 190/3/4 191/3/4
f 190/3/4 187/3/4 192/3/4
f 191/3/4 190/3/4 192/3/4
f 193/1/4 194/1/4 195/1/4
f 195/1/4 194/1/4 196/1/4
f 197/2/4 198/2/4 199/2/4
f 199/2/4 198/2/4 200/2/4
f 200/2/4 198/2/4 202/2/4
f 201/2/4 202/2/4 203/2/4
f 202/2/4 198/2/4 204/2/4
f 203/2/4 202/2/4 204/2/4
f 205/1/4 206/1/4 207/1/4
f 207/1/4 206/1/4 208/1/4
f 211/2/5 210/2/5 209/2/5
f 212/2/5 210/2/5 211/2/5
f 215/2/5 214/2/5 213/2/5
f 216/2/5 214/2/5 215/2/5
f 219/2/5 218/2/5 217/2/5
f 220/2/5 218/2/5 219/2/5
f 223/2/5 222/2/5 221/2/5
f 224/2/5 222/2/5 223/2/5
f 228/2/5 226/2/5 225/2/5
f 229/2/5 226/2/5 228/2/5
f 231/2/5 228/2/5 227/2/5
f 231/2/5 230/2/5 229/2/5
f 231/2/5 229/2/5 228/2/5
f 232/2/5 230/2/5 231/2/5
f 233/2/5 230/2/5 232/2/5
f 234/2/5 230/2/5 233/2/5
f 235/2/5 233/2/5 232/2/5
f 236/2/5 233/2/5 235/2/5
f 239/1/5 238/1/5 237/1/5
f 240/1/5 238/1/5 239/1/5
f 241/1/5 239/1/5 237/1/5
f 242/1/5 238/1/5 240/1/5
f 243/1/5 241/1/5 237/1/5
f 243/1/5 242/1/5 241/1/5
f 244/1/5 238/1/5 242/1/5
f 244/1/5 242/1/5 243/1/5
f 249/3/5 246/3/5 245/3/5
f 250/3/5 246/3/5 249/3/5
f 251/3/5 248/3/5 247/3/5
f 252/3/5 248/3/5 251/3/5
f 255/1/5 254/1/5 253/1/5
f 256/1/5 254/1/5 255/1/5
f 261/3/5 258/3/5 257/3/5
f 262/3/5 258/3/5 261/3/5
f 263/3/5 260/3/5 259/3/5
f 264/3/5 260/3/5 263/3/5
f 265/1/6 266/1/6 267/1/6
f 267/1/6 266/1/6 268/1/6
f 268/1/6 266/1/6 269/1/6
f 269/1/6 266/1/6 270/1/6
f 268/1/6 269/1/6 271/1/6
f 271/1/6 269/1/6 272/1/6
f 265/1/6 267/1/6 273/1/6
f 270/1/6 266/1/6 274/1/6
f 265/1/6 273/1/6 275/1/6
f 273/1/6 274/1/6 275/1/6
f 274/1/6 266/1/6 276/1/6
f 275/1/6 274/1/6 276/1/6
f 277/1/6 278/1/6 281/1/6
f 281/1/6 278/1/6 282/1/6
f 279/1/6 280/1/6 283/1/6
f 283/1/6 280/1/6 284/1/6
f 285/3/6 286/3/6 289/3/6
f 289/3/6 286/3/6 290/3/6
f 287/3/6 288/3/6 291/3/6
f 291/3/6 288/3/6 292/3/6
f 293/1/6 294/1/6 295/1/6
f 295/1/6 294/1/6 296/1/6
f 297/3/6 298/3/6 301/3/6
f 301/3/6 298/3/6 302/3/6
f 299/3/6 300/3/6 303/3/6
f 303/3/6 300/3/6 304/3/6
f 305/3/6 306/3/6 309/3/6
f 309/3/6 306/3/6 310/3/6
f 307/3/6 308/3/6 311/3/6
f 311/3/6 308/3/6 312/3/6
